<?xml version="1.0" encoding="utf-8"?>
<!-- Generator: Adobe Illustrator 28.0.0, SVG Export Plug-In . SVG Version: 6.00 Build 0)  -->
<svg version="1.1" id="Слой_1" xmlns="http://www.w3.org/2000/svg" xmlns:xlink="http://www.w3.org/1999/xlink" x="0px" y="0px"
	 viewBox="0 0 1590 684.36" style="enable-background:new 0 0 1590 684.36;" xml:space="preserve">
<style type="text/css">
	.st0{fill-rule:evenodd;clip-rule:evenodd;fill:#1F4229;}
	.st1{fill:#1F4229;}
</style>
<g>
	<g>
		<g>
			<g>
				<g>
					<path class="st0" d="M214.57,235.92c0,17.63-12.5,33.28-18.57,43.02c-4.54,7.29-10.43,15.92-15.8,22.47
						c-5.52-6.79-11.17-15.05-15.8-22.47c-6.04-9.69-18.58-24.43-18.57-43.02c0-18.99,15.39-34.37,34.37-34.37
						C199.18,201.55,214.57,216.94,214.57,235.92z"/>
				</g>
			</g>
			<g>
				<g>
					<path class="st1" d="M287.18,309.41c1.39-41.76-53.09-71.36-53.09-71.36s11.13,40.46-24.96,71.7
						c-31.58,27.33-87.28,14.38-91.4,70.98c-2.6,35.65,33.6,72.97,81.23,91.13c0,0-20.87-30.86-10.16-61.92
						C202.58,369.97,284.77,381.94,287.18,309.41z"/>
				</g>
			</g>
		</g>
		<g>
			<g>
				<path class="st1" d="M395.59,231.22c20.03,0,35.41,3.52,46.14,10.56c10.73,7.05,16.09,18.58,16.09,34.6
					c0,16.16-5.43,27.82-16.28,34.99c-10.86,7.17-26.36,10.76-46.53,10.76h-9.5v44.97h-30.24v-132.4
					C368.02,232.22,383.79,231.22,395.59,231.22z M385.51,257.59v38.77c21.07,0,41.1,0.8,41.1-20.16
					C426.6,256.18,405.65,255.94,385.51,257.59z"/>
			</g>
			<g>
				<path class="st1" d="M507.4,235.68c0,10.85-8.18,17.06-17.25,17.06c-8.98,0-17.25-6.1-17.25-17.06
					c0-10.77,8.12-17.06,17.25-17.06C499.17,218.62,507.4,224.79,507.4,235.68z M504.69,367.12H475.8V265.15h28.88V367.12z"/>
			</g>
			<g>
				<path class="st1" d="M571.39,369.05c-11.41-0.18-24.84-1.76-32.86-9.79c-6.61-6.6-7.85-16.28-7.85-25.69V221.34l28.88-4.65
					v111.08c0,10.98,2.84,16.48,15.9,17.45L571.39,369.05z"/>
			</g>
			<g>
				<path class="st1" d="M631.48,262.43c12.65,0,26.36,2.13,34.99,11.24c7.55,7.98,9.4,19.52,9.4,30.44v60.09
					c-18.85,4.12-30.16,5.04-44.01,5.04c-10.8,0-22.96-1.42-31.79-7.46c-8.79-6-12.02-15.26-12.02-26.07
					c0-11.56,4.9-19.93,13.18-25.01c8.61-5.28,19.82-6.98,29.85-6.98c5.1,0,12.18,0.35,17.06,1.74c0-4.93,0.09-9.99-4.46-14.54
					c-7.56-7.55-32.52-4.06-42.46-0.39l-3.68-23.26C607.1,264.35,621.26,262.43,631.48,262.43z M648.15,346.18v-21.91
					c-6.69-1.48-19.29-1.98-25.59,1.16c-3.76,1.88-5.82,5-5.82,9.5c0,4.53,1.52,7.66,4.56,9.4
					C628.37,348.4,644.91,346.73,648.15,346.18z"/>
			</g>
			<g>
				<path class="st1" d="M700.24,239.75l28.88-4.65v30.05h34.7v24.04h-34.7c0,36.62-1.03,43.23,3.2,50.4
					c5.01,8.5,23.23,5.29,31.5,2.13l4.07,22.49c-10.3,4.2-18.25,5.23-27.33,5.23c-12.27,0-24.31-2.67-31.99-12.12
					C697.99,344.31,700.24,331.7,700.24,239.75z"/>
			</g>
			<g>
				<path class="st1" d="M779.54,316.91c0-18.14,6.1-31.69,15.12-40.71c9.33-9.33,21.76-13.76,33.73-13.76
					c14.47,0,25.91,4.43,34.31,13.28c12.35,13.02,13.48,32.29,12.02,49.92H809.2c1.49,13.77,14.26,19.39,28.11,19.39
					c8.76,0,20.44-1.66,28.11-5.04l3.88,23.46c-8.67,4.34-26.15,6.4-35.86,6.4c-19.2,0-32.4-6.32-40.81-15.22
					C783.08,344.51,779.54,330.64,779.54,316.91z M847.39,305.86c-0.63-11.95-7.34-19.58-18.61-19.58
					c-11.8,0-17.69,7.59-19.58,19.58H847.39z"/>
			</g>
			<g>
				<path class="st1" d="M937.11,344.82c2.2-1.03,3.3-3.03,3.3-6.01c0-2.33-1.42-4.36-4.27-6.11c-10.36-6.36-25.17-8.35-34.7-17.64
					c-6.03-5.87-8.14-13.26-8.14-21.61c0-9.56,3.55-17.12,10.66-22.68c12.26-9.58,31.95-9.61,47.11-6.69
					c5.69,1.1,10.21,2.3,13.57,3.59l-5.04,22.49c-3.36-1.16-7.01-2.2-10.95-3.1c-8.82-2.02-26.85-3.41-26.85,6.2
					c0,9.05,14.87,9.72,31.02,18.61c12.3,6.79,16.28,14.55,16.28,27.4c0,10.06-3.78,17.67-11.34,22.83
					c-7.56,5.16-18.26,7.74-32.08,7.74c-9.05,0-16.57-0.78-22.58-2.33c-6.01-1.55-10.18-2.84-12.5-3.88l4.85-23.46
					C913.31,347.23,931.39,347.52,937.11,344.82z"/>
			</g>
			<g>
				<path class="st1" d="M1034.98,231.22c20.03,0,35.41,3.52,46.14,10.56c10.73,7.05,16.09,18.58,16.09,34.6
					c0,16.16-5.43,27.82-16.28,34.99c-10.86,7.17-26.36,10.76-46.53,10.76h-9.5v44.97h-30.24v-132.4
					C1007.41,232.22,1023.18,231.22,1034.98,231.22z M1024.9,257.59v38.77c21,0,41.1,0.84,41.1-20.16
					C1066,256.19,1045.07,255.94,1024.9,257.59z"/>
			</g>
			<g>
				<path class="st1" d="M1210.45,315.94c0,14.37-3.9,28.68-13.57,39.06c-9.54,10.24-22.45,14.83-36.45,14.83
					c-15.31,0-27.68-5.62-36.25-14.83c-9.73-10.44-13.96-24.72-13.96-39.06c0-16.56,5.67-29.82,14.25-38.77
					c8.69-9.08,21.16-14.73,35.96-14.73c14.84,0,27.33,5.5,36.06,14.73C1206.22,287.46,1210.45,301.55,1210.45,315.94z
					 M1180.99,315.94c0-15.1-5.52-28.69-20.55-28.69c-15.08,0-20.74,13.65-20.74,28.69c0,15.1,5.71,29.08,20.74,29.08
					C1175.5,345.02,1180.99,330.93,1180.99,315.94z"/>
			</g>
			<g>
				<path class="st1" d="M1262.62,235.68c0,10.85-8.18,17.06-17.25,17.06c-8.9,0-17.25-6-17.25-17.06
					c0-10.77,8.12-17.06,17.25-17.06C1254.39,218.62,1262.62,224.79,1262.62,235.68z M1259.91,367.12h-28.88V265.15h28.88V367.12z"
					/>
			</g>
			<g>
				<path class="st1" d="M1286.4,268.64c10.84-3.14,27.38-5.82,43.42-5.82c13.27,0,26.94,2.73,35.28,12.99
					c11.71,14.43,9.31,30.74,9.31,91.31h-28.88v-54.09c0-23.84-6.49-28-30.24-24.62v78.7h-28.88V268.64z"/>
			</g>
			<g>
				<path class="st1" d="M1398.55,239.75l28.88-4.65v30.05h34.7v24.04h-34.7c0,36.62-1.03,43.23,3.2,50.4
					c4.93,8.37,22.92,5.41,31.5,2.13l4.07,22.49c-18.48,7.54-46.72,8.61-59.32-6.88C1395.92,343.87,1398.55,329.49,1398.55,239.75z"
					/>
			</g>
			<g>
				<path class="st1" d="M362.64,445.12c-0.15,2.09-0.3,4.27-0.45,6.54c-0.15,2.27-0.27,4.52-0.37,6.77c-0.1,2.24-0.2,4.41-0.3,6.5
					c-0.1,2.09-0.17,4.04-0.22,5.83h-8.75c0.1-2.89,0.25-6.02,0.45-9.38c0.2-3.36,0.43-6.78,0.71-10.24
					c0.27-3.46,0.56-6.86,0.86-10.2c0.3-3.34,0.62-6.43,0.97-9.27h7.85c1.9,3.04,3.82,6.62,5.77,10.73
					c1.95,4.11,4.12,8.78,6.52,14.02c2.48-5.33,4.74-10.15,6.78-14.46c2.04-4.31,3.85-7.74,5.44-10.28h7.93
					c0.35,2.84,0.69,5.93,1.01,9.27c0.32,3.34,0.61,6.74,0.86,10.2c0.25,3.47,0.47,6.88,0.67,10.24s0.35,6.49,0.45,9.38h-8.97
					c-0.1-4.09-0.26-8.31-0.49-12.67c-0.22-4.36-0.49-8.68-0.78-12.97c-0.75,1.5-1.55,3.17-2.42,5.01
					c-0.87,1.84-1.72,3.71-2.57,5.61c-0.85,1.9-1.66,3.73-2.46,5.5c-0.8,1.77-1.49,3.33-2.09,4.67h-6.73
					c-0.6-1.35-1.31-2.92-2.14-4.71c-0.83-1.79-1.67-3.64-2.51-5.53c-0.85-1.89-1.71-3.75-2.59-5.57S363.39,446.62,362.64,445.12z"
					/>
			</g>
			<g>
				<path class="st1" d="M407.29,451.4c0-3.44,0.51-6.45,1.53-9.05c1.02-2.59,2.38-4.75,4.07-6.47c1.69-1.72,3.64-3.01,5.83-3.89
					c2.19-0.87,4.43-1.31,6.73-1.31c5.38,0,9.58,1.67,12.6,5.01c3.02,3.34,4.52,8.32,4.52,14.95c0,0.5-0.01,1.06-0.04,1.68
					c-0.03,0.62-0.06,1.19-0.11,1.68h-25.79c0.25,3.14,1.36,5.57,3.33,7.29c1.97,1.72,4.82,2.58,8.56,2.58c2.19,0,4.2-0.2,6.02-0.6
					c1.82-0.4,3.25-0.82,4.3-1.27l1.2,7.4c-0.5,0.25-1.18,0.51-2.06,0.78c-0.87,0.27-1.87,0.52-2.99,0.75
					c-1.12,0.23-2.33,0.41-3.63,0.56c-1.3,0.15-2.62,0.23-3.96,0.23c-3.44,0-6.43-0.51-8.97-1.53c-2.54-1.02-4.63-2.44-6.28-4.26
					s-2.87-3.96-3.66-6.43C407.69,457.05,407.29,454.34,407.29,451.4z M433.53,447.37c0-1.25-0.17-2.43-0.52-3.55
					c-0.35-1.12-0.86-2.09-1.53-2.92c-0.67-0.82-1.5-1.47-2.47-1.94c-0.97-0.47-2.13-0.71-3.48-0.71c-1.4,0-2.62,0.26-3.66,0.79
					c-1.05,0.52-1.93,1.21-2.65,2.06c-0.72,0.85-1.28,1.82-1.68,2.92c-0.4,1.1-0.67,2.22-0.82,3.36H433.53z"/>
			</g>
			<g>
				<path class="st1" d="M450.45,451.25c0-2.89,0.45-5.6,1.35-8.11c0.9-2.52,2.18-4.7,3.85-6.54c1.67-1.84,3.7-3.29,6.09-4.34
					s5.08-1.57,8.07-1.57c3.69,0,7.18,0.67,10.46,2.02l-1.94,7.4c-1.05-0.45-2.23-0.82-3.55-1.12c-1.32-0.3-2.73-0.45-4.22-0.45
					c-3.54,0-6.23,1.11-8.07,3.33c-1.84,2.22-2.77,5.35-2.77,9.38c0,3.89,0.87,6.97,2.62,9.23c1.74,2.27,4.68,3.4,8.82,3.4
					c1.54,0,3.06-0.15,4.56-0.45c1.49-0.3,2.79-0.67,3.89-1.12l1.27,7.47c-1,0.5-2.5,0.95-4.52,1.35c-2.02,0.4-4.1,0.6-6.24,0.6
					c-3.34,0-6.24-0.51-8.71-1.53s-4.51-2.44-6.13-4.26c-1.62-1.82-2.83-3.99-3.63-6.5C450.84,456.92,450.45,454.19,450.45,451.25z"
					/>
			</g>
			<g>
				<path class="st1" d="M520.24,439.22H507.6v31.55h-9.05v-31.55H486v-7.55h34.24V439.22z"/>
			</g>
			<g>
				<path class="st1" d="M562.96,451.18c0,3.09-0.45,5.91-1.35,8.45c-0.9,2.54-2.17,4.71-3.81,6.5s-3.63,3.19-5.94,4.19
					c-2.32,1-4.87,1.5-7.66,1.5c-2.79,0-5.33-0.5-7.63-1.5c-2.29-1-4.26-2.39-5.91-4.19c-1.64-1.79-2.93-3.96-3.85-6.5
					c-0.92-2.54-1.38-5.36-1.38-8.45c0-3.09,0.46-5.89,1.38-8.41c0.92-2.52,2.22-4.67,3.89-6.47c1.67-1.79,3.65-3.18,5.94-4.15
					c2.29-0.97,4.81-1.46,7.55-1.46c2.74,0,5.27,0.49,7.59,1.46c2.32,0.97,4.3,2.35,5.94,4.15c1.65,1.79,2.93,3.95,3.85,6.47
					C562.49,445.29,562.96,448.09,562.96,451.18z M553.69,451.18c0-3.89-0.84-6.96-2.51-9.23c-1.67-2.27-4-3.4-6.99-3.4
					c-2.99,0-5.32,1.13-6.99,3.4c-1.67,2.27-2.51,5.35-2.51,9.23c0,3.94,0.83,7.05,2.51,9.34c1.67,2.29,4,3.44,6.99,3.44
					c2.99,0,5.32-1.14,6.99-3.44C552.85,458.23,553.69,455.12,553.69,451.18z"/>
			</g>
			<g>
				<path class="st1" d="M580.34,460.82c0.1,0.85,0.15,1.47,0.15,1.87c0,0.4,0,0.8,0,1.2c0,3.09-0.49,6.28-1.46,9.57
					c-0.97,3.29-2.33,6.4-4.07,9.34l-7.1-1.94c1.2-2.89,2.01-5.72,2.43-8.48c0.42-2.77,0.64-5.2,0.64-7.29
					c0-0.6-0.01-1.35-0.04-2.24c-0.02-0.9-0.06-1.57-0.11-2.02H580.34z"/>
			</g>
			<g>
				<path class="st1" d="M636.34,439.14h-16.9v31.62h-9.05v-39.1h25.94V439.14z"/>
			</g>
			<g>
				<path class="st1" d="M635.95,463.36h4.49c1.54-2.04,2.75-4.32,3.63-6.84s1.51-5.16,1.91-7.93c0.4-2.77,0.65-5.59,0.75-8.48
					c0.1-2.89,0.17-5.71,0.22-8.45h28.03v31.7h5.98v18.47h-8.07v-11.06h-28.93v11.06h-8V463.36z M665.93,463.36v-24.22h-10.62
					c-0.1,2.04-0.23,4.12-0.37,6.24c-0.15,2.12-0.42,4.21-0.82,6.28c-0.4,2.07-0.94,4.09-1.61,6.06c-0.67,1.97-1.56,3.85-2.65,5.64
					H665.93z"/>
			</g>
			<g>
				<path class="st1" d="M686.32,451.4c0-3.44,0.51-6.45,1.53-9.05c1.02-2.59,2.38-4.75,4.07-6.47c1.69-1.72,3.64-3.01,5.83-3.89
					c2.19-0.87,4.44-1.31,6.73-1.31c5.38,0,9.58,1.67,12.6,5.01c3.01,3.34,4.52,8.32,4.52,14.95c0,0.5-0.01,1.06-0.04,1.68
					c-0.02,0.62-0.06,1.19-0.11,1.68h-25.79c0.25,3.14,1.36,5.57,3.33,7.29c1.97,1.72,4.82,2.58,8.56,2.58c2.19,0,4.2-0.2,6.02-0.6
					c1.82-0.4,3.25-0.82,4.3-1.27l1.2,7.4c-0.5,0.25-1.19,0.51-2.06,0.78c-0.87,0.27-1.87,0.52-2.99,0.75
					c-1.12,0.23-2.33,0.41-3.63,0.56c-1.3,0.15-2.62,0.23-3.96,0.23c-3.44,0-6.43-0.51-8.97-1.53c-2.54-1.02-4.64-2.44-6.28-4.26
					s-2.87-3.96-3.66-6.43C686.72,457.05,686.32,454.34,686.32,451.4z M712.56,447.37c0-1.25-0.18-2.43-0.52-3.55
					c-0.35-1.12-0.86-2.09-1.53-2.92c-0.67-0.82-1.49-1.47-2.47-1.94c-0.97-0.47-2.13-0.71-3.48-0.71c-1.4,0-2.62,0.26-3.66,0.79
					c-1.05,0.52-1.93,1.21-2.65,2.06c-0.72,0.85-1.28,1.82-1.68,2.92c-0.4,1.1-0.67,2.22-0.82,3.36H712.56z"/>
			</g>
			<g>
				<path class="st1" d="M783.35,470.77h-9.04v-16.37h-14.73v16.37h-9.05v-39.1h9.05v15.25h14.73v-15.25h9.04V470.77z"/>
			</g>
			<g>
				<path class="st1" d="M808.12,430.69c2.99,0,5.51,0.37,7.55,1.12c2.04,0.75,3.68,1.79,4.9,3.14c1.22,1.35,2.09,2.98,2.62,4.9
					c0.52,1.92,0.79,4.02,0.79,6.32v23.7c-1.4,0.3-3.5,0.66-6.32,1.08c-2.82,0.42-5.99,0.64-9.53,0.64c-2.34,0-4.48-0.22-6.43-0.67
					c-1.94-0.45-3.6-1.17-4.97-2.17c-1.37-1-2.44-2.29-3.22-3.89c-0.77-1.6-1.16-3.56-1.16-5.91c0-2.24,0.44-4.14,1.31-5.68
					c0.87-1.54,2.06-2.8,3.55-3.77c1.49-0.97,3.23-1.67,5.2-2.09c1.97-0.42,4.02-0.64,6.17-0.64c1,0,2.04,0.06,3.14,0.19
					c1.1,0.13,2.27,0.34,3.51,0.64v-1.49c0-1.05-0.13-2.04-0.37-2.99c-0.25-0.95-0.69-1.78-1.31-2.51
					c-0.62-0.72-1.45-1.28-2.47-1.68c-1.02-0.4-2.31-0.6-3.85-0.6c-2.09,0-4.01,0.15-5.76,0.45c-1.75,0.3-3.17,0.65-4.26,1.05
					l-1.12-7.33c1.14-0.4,2.81-0.8,5.01-1.2C803.29,430.89,805.63,430.69,808.12,430.69z M808.87,464.41c2.79,0,4.91-0.15,6.35-0.45
					v-10.02c-0.5-0.15-1.22-0.3-2.17-0.45c-0.95-0.15-1.99-0.22-3.14-0.22c-1,0-2.01,0.07-3.03,0.22c-1.02,0.15-1.94,0.42-2.76,0.82
					c-0.82,0.4-1.48,0.96-1.98,1.68c-0.5,0.72-0.75,1.63-0.75,2.73c0,2.14,0.67,3.63,2.02,4.45
					C804.76,464,806.57,464.41,808.87,464.41z"/>
			</g>
			<g>
				<path class="st1" d="M841.42,443.78c0,2.39,0.69,4.07,2.06,5.05c1.37,0.97,3.25,1.46,5.64,1.46c1.15,0,2.28-0.06,3.4-0.19
					c1.12-0.12,2.1-0.29,2.95-0.49v-17.94h9.05v39.1h-9.05v-13.98c-0.9,0.15-2.07,0.34-3.51,0.56c-1.45,0.22-2.74,0.34-3.89,0.34
					c-2.34,0-4.48-0.23-6.39-0.67c-1.92-0.45-3.58-1.21-4.97-2.28c-1.39-1.07-2.47-2.49-3.21-4.26c-0.75-1.77-1.12-3.97-1.12-6.62
					v-12.19h9.04V443.78z"/>
			</g>
			<g>
				<path class="st1" d="M910.48,431.67v39.1h-8.97c0-2.84,0.01-5.66,0.04-8.45s0.05-5.38,0.08-7.78c0.02-2.39,0.05-4.47,0.07-6.24
					c0.02-1.77,0.04-3.08,0.04-3.93c-1.5,1.94-3.04,4.09-4.64,6.43c-1.6,2.34-3.18,4.68-4.75,7.03c-1.57,2.34-3.05,4.64-4.45,6.88
					c-1.4,2.24-2.62,4.26-3.66,6.05h-8v-39.1h8.9c0,2.89-0.01,5.64-0.04,8.26c-0.02,2.62-0.04,5-0.04,7.14
					c0,2.14-0.01,4.01-0.04,5.61c-0.02,1.6-0.04,2.82-0.04,3.66c1.39-2.14,2.84-4.35,4.34-6.62c1.49-2.27,3-4.49,4.52-6.65
					c1.52-2.17,3.03-4.23,4.52-6.17c1.5-1.94,2.94-3.69,4.34-5.23H910.48z"/>
			</g>
			<g>
				<path class="st1" d="M954.98,470.77h-9.04v-16.37h-14.73v16.37h-9.05v-39.1h9.05v15.25h14.73v-15.25h9.04V470.77z"/>
			</g>
			<g>
				<path class="st1" d="M979.75,430.69c2.99,0,5.51,0.37,7.55,1.12c2.04,0.75,3.68,1.79,4.9,3.14c1.22,1.35,2.09,2.98,2.62,4.9
					c0.52,1.92,0.78,4.02,0.78,6.32v23.7c-1.39,0.3-3.5,0.66-6.32,1.08c-2.82,0.42-5.99,0.64-9.53,0.64c-2.34,0-4.49-0.22-6.43-0.67
					c-1.94-0.45-3.6-1.17-4.97-2.17c-1.37-1-2.44-2.29-3.21-3.89c-0.77-1.6-1.16-3.56-1.16-5.91c0-2.24,0.43-4.14,1.31-5.68
					c0.87-1.54,2.06-2.8,3.55-3.77c1.5-0.97,3.23-1.67,5.2-2.09c1.97-0.42,4.02-0.64,6.17-0.64c1,0,2.04,0.06,3.14,0.19
					c1.1,0.13,2.27,0.34,3.51,0.64v-1.49c0-1.05-0.12-2.04-0.37-2.99c-0.25-0.95-0.68-1.78-1.31-2.51
					c-0.62-0.72-1.45-1.28-2.47-1.68c-1.02-0.4-2.31-0.6-3.85-0.6c-2.09,0-4.01,0.15-5.76,0.45c-1.74,0.3-3.16,0.65-4.26,1.05
					l-1.12-7.33c1.15-0.4,2.82-0.8,5.01-1.2C974.91,430.89,977.26,430.69,979.75,430.69z M980.5,464.41c2.79,0,4.91-0.15,6.35-0.45
					v-10.02c-0.5-0.15-1.22-0.3-2.17-0.45c-0.95-0.15-1.99-0.22-3.14-0.22c-1,0-2.01,0.07-3.03,0.22c-1.02,0.15-1.94,0.42-2.77,0.82
					s-1.48,0.96-1.98,1.68c-0.5,0.72-0.75,1.63-0.75,2.73c0,2.14,0.67,3.63,2.02,4.45C976.38,464,978.2,464.41,980.5,464.41z"/>
			</g>
			<g>
				<path class="st1" d="M1004.66,451.4c0-3.44,0.51-6.45,1.53-9.05c1.02-2.59,2.38-4.75,4.07-6.47c1.69-1.72,3.64-3.01,5.83-3.89
					c2.19-0.87,4.43-1.31,6.73-1.31c5.38,0,9.58,1.67,12.6,5.01c3.02,3.34,4.52,8.32,4.52,14.95c0,0.5-0.01,1.06-0.04,1.68
					c-0.02,0.62-0.06,1.19-0.11,1.68H1014c0.25,3.14,1.36,5.57,3.33,7.29c1.97,1.72,4.82,2.58,8.56,2.58c2.19,0,4.2-0.2,6.02-0.6
					c1.82-0.4,3.25-0.82,4.3-1.27l1.2,7.4c-0.5,0.25-1.18,0.51-2.06,0.78c-0.87,0.27-1.87,0.52-2.99,0.75
					c-1.12,0.23-2.33,0.41-3.63,0.56c-1.3,0.15-2.62,0.23-3.96,0.23c-3.44,0-6.43-0.51-8.97-1.53c-2.54-1.02-4.64-2.44-6.28-4.26
					c-1.64-1.82-2.87-3.96-3.66-6.43S1004.66,454.34,1004.66,451.4z M1030.9,447.37c0-1.25-0.18-2.43-0.52-3.55
					c-0.35-1.12-0.86-2.09-1.53-2.92c-0.67-0.82-1.5-1.47-2.47-1.94c-0.97-0.47-2.13-0.71-3.48-0.71c-1.39,0-2.62,0.26-3.66,0.79
					c-1.05,0.52-1.93,1.21-2.65,2.06c-0.72,0.85-1.28,1.82-1.68,2.92c-0.4,1.1-0.67,2.22-0.82,3.36H1030.9z"/>
			</g>
			<g>
				<path class="st1" d="M1079.87,439.22h-12.63v31.55h-9.05v-31.55h-12.56v-7.55h34.24V439.22z"/>
			</g>
			<g>
				<path class="st1" d="M1084.99,451.25c0-2.89,0.45-5.6,1.35-8.11c0.9-2.52,2.18-4.7,3.85-6.54s3.7-3.29,6.09-4.34
					c2.39-1.05,5.08-1.57,8.07-1.57c3.69,0,7.18,0.67,10.47,2.02l-1.94,7.4c-1.05-0.45-2.23-0.82-3.55-1.12
					c-1.32-0.3-2.73-0.45-4.22-0.45c-3.54,0-6.23,1.11-8.07,3.33c-1.85,2.22-2.77,5.35-2.77,9.38c0,3.89,0.87,6.97,2.62,9.23
					c1.74,2.27,4.68,3.4,8.82,3.4c1.54,0,3.06-0.15,4.56-0.45c1.5-0.3,2.79-0.67,3.89-1.12l1.27,7.47c-1,0.5-2.5,0.95-4.52,1.35
					c-2.02,0.4-4.1,0.6-6.24,0.6c-3.34,0-6.24-0.51-8.71-1.53s-4.51-2.44-6.13-4.26s-2.83-3.99-3.63-6.5
					S1084.99,454.19,1084.99,451.25z"/>
			</g>
			<g>
				<path class="st1" d="M1142.28,456.26c-0.6,0-1.2,0-1.79,0s-1.17-0.02-1.72-0.07c-1.6,2.39-3.06,4.85-4.41,7.36
					c-1.35,2.52-2.59,4.92-3.74,7.21h-9.27c1.35-3.09,2.84-6.05,4.48-8.9c1.64-2.84,3.19-5.26,4.64-7.25
					c-2.44-1.05-4.22-2.45-5.34-4.22c-1.12-1.77-1.68-3.85-1.68-6.24c0-2.19,0.41-4.12,1.23-5.79c0.82-1.67,1.98-3.07,3.48-4.19
					c1.5-1.12,3.29-1.97,5.38-2.54c2.09-0.57,4.41-0.86,6.95-0.86c2.94,0,5.79,0.17,8.56,0.52c2.77,0.35,5.02,0.75,6.77,1.2v38.28
					h-9.05v-14.5H1142.28z M1146.77,438.24c-0.55-0.1-1.4-0.19-2.54-0.26c-1.15-0.07-2.32-0.11-3.51-0.11c-5.53,0-8.3,2.04-8.3,6.13
					c0,1.1,0.21,2.01,0.64,2.73c0.42,0.72,1.01,1.31,1.76,1.76c0.75,0.45,1.62,0.76,2.62,0.93c1,0.18,2.07,0.26,3.22,0.26h6.13
					V438.24z"/>
			</g>
			<g>
				<path class="st1" d="M1219.2,431.67v39.1h-9.05v-31.55h-14.43v31.55h-9.05v-39.1H1219.2z"/>
			</g>
			<g>
				<path class="st1" d="M1265.13,431.67v39.1h-8.97c0-2.84,0.01-5.66,0.04-8.45s0.05-5.38,0.07-7.78c0.02-2.39,0.05-4.47,0.07-6.24
					c0.02-1.77,0.04-3.08,0.04-3.93c-1.5,1.94-3.04,4.09-4.64,6.43c-1.6,2.34-3.18,4.68-4.75,7.03c-1.57,2.34-3.05,4.64-4.45,6.88
					c-1.4,2.24-2.62,4.26-3.66,6.05h-8v-39.1h8.9c0,2.89-0.01,5.64-0.04,8.26c-0.03,2.62-0.04,5-0.04,7.14
					c0,2.14-0.01,4.01-0.04,5.61c-0.03,1.6-0.04,2.82-0.04,3.66c1.39-2.14,2.84-4.35,4.34-6.62c1.5-2.27,3-4.49,4.52-6.65
					c1.52-2.17,3.03-4.23,4.52-6.17c1.49-1.94,2.94-3.69,4.34-5.23H1265.13z"/>
			</g>
			<g>
				<path class="st1" d="M1292.87,439.14c-0.05,2.19-0.12,4.47-0.22,6.84c-0.1,2.37-0.34,4.7-0.71,6.99
					c-0.37,2.29-0.96,4.48-1.76,6.58c-0.8,2.09-1.91,3.97-3.33,5.64c-1.42,1.67-3.19,3.07-5.31,4.19c-2.12,1.12-4.7,1.83-7.74,2.13
					l-1.27-7.55c2.54-0.5,4.51-1.31,5.91-2.43s2.47-2.55,3.22-4.3c0.6-1.3,1.06-2.77,1.38-4.41c0.32-1.64,0.57-3.38,0.75-5.2
					c0.17-1.82,0.29-3.67,0.34-5.57c0.05-1.89,0.07-3.74,0.07-5.53v-4.86h27.66v39.1h-9.05v-31.62H1292.87z"/>
			</g>
			<g>
				<path class="st1" d="M1336.59,430.69c2.99,0,5.51,0.37,7.55,1.12c2.04,0.75,3.68,1.79,4.9,3.14c1.22,1.35,2.09,2.98,2.62,4.9
					c0.52,1.92,0.78,4.02,0.78,6.32v23.7c-1.39,0.3-3.5,0.66-6.32,1.08c-2.82,0.42-5.99,0.64-9.53,0.64c-2.34,0-4.49-0.22-6.43-0.67
					c-1.94-0.45-3.6-1.17-4.97-2.17c-1.37-1-2.44-2.29-3.22-3.89c-0.77-1.6-1.16-3.56-1.16-5.91c0-2.24,0.44-4.14,1.31-5.68
					c0.87-1.54,2.06-2.8,3.55-3.77c1.5-0.97,3.23-1.67,5.2-2.09c1.97-0.42,4.02-0.64,6.17-0.64c1,0,2.04,0.06,3.14,0.19
					c1.1,0.13,2.27,0.34,3.51,0.64v-1.49c0-1.05-0.12-2.04-0.37-2.99c-0.25-0.95-0.69-1.78-1.31-2.51
					c-0.62-0.72-1.45-1.28-2.47-1.68c-1.02-0.4-2.31-0.6-3.85-0.6c-2.09,0-4.01,0.15-5.76,0.45c-1.75,0.3-3.17,0.65-4.26,1.05
					l-1.12-7.33c1.14-0.4,2.81-0.8,5.01-1.2C1331.75,430.89,1334.09,430.69,1336.59,430.69z M1337.33,464.41
					c2.79,0,4.91-0.15,6.35-0.45v-10.02c-0.5-0.15-1.22-0.3-2.17-0.45c-0.95-0.15-1.99-0.22-3.14-0.22c-1,0-2.01,0.07-3.03,0.22
					c-1.02,0.15-1.94,0.42-2.77,0.82c-0.82,0.4-1.48,0.96-1.98,1.68c-0.5,0.72-0.75,1.63-0.75,2.73c0,2.14,0.67,3.63,2.02,4.45
					C1333.22,464,1335.04,464.41,1337.33,464.41z"/>
			</g>
			<g>
				<path class="st1" d="M1393.63,439.22h-12.63v31.55h-9.05v-31.55h-12.56v-7.55h34.24V439.22z"/>
			</g>
			<g>
				<path class="st1" d="M1398.82,451.4c0-3.44,0.51-6.45,1.53-9.05c1.02-2.59,2.38-4.75,4.07-6.47c1.69-1.72,3.64-3.01,5.83-3.89
					c2.19-0.87,4.43-1.31,6.73-1.31c5.38,0,9.58,1.67,12.6,5.01c3.02,3.34,4.52,8.32,4.52,14.95c0,0.5-0.01,1.06-0.04,1.68
					c-0.02,0.62-0.06,1.19-0.11,1.68h-25.79c0.25,3.14,1.36,5.57,3.33,7.29c1.97,1.72,4.82,2.58,8.56,2.58c2.19,0,4.2-0.2,6.02-0.6
					c1.82-0.4,3.25-0.82,4.3-1.27l1.2,7.4c-0.5,0.25-1.18,0.51-2.06,0.78c-0.87,0.27-1.87,0.52-2.99,0.75
					c-1.12,0.23-2.33,0.41-3.63,0.56c-1.3,0.15-2.62,0.23-3.96,0.23c-3.44,0-6.43-0.51-8.97-1.53c-2.54-1.02-4.64-2.44-6.28-4.26
					c-1.64-1.82-2.87-3.96-3.66-6.43C1399.21,457.05,1398.82,454.34,1398.82,451.4z M1425.06,447.37c0-1.25-0.18-2.43-0.52-3.55
					c-0.35-1.12-0.86-2.09-1.53-2.92c-0.67-0.82-1.5-1.47-2.47-1.94c-0.97-0.47-2.13-0.71-3.48-0.71c-1.39,0-2.62,0.26-3.66,0.79
					c-1.05,0.52-1.93,1.21-2.65,2.06c-0.72,0.85-1.28,1.82-1.68,2.92c-0.4,1.1-0.67,2.22-0.82,3.36H1425.06z"/>
			</g>
			<g>
				<path class="st1" d="M1441.97,451.25c0-2.89,0.45-5.6,1.35-8.11c0.9-2.52,2.18-4.7,3.85-6.54s3.7-3.29,6.09-4.34
					c2.39-1.05,5.08-1.57,8.07-1.57c3.69,0,7.18,0.67,10.47,2.02l-1.94,7.4c-1.05-0.45-2.23-0.82-3.55-1.12
					c-1.32-0.3-2.73-0.45-4.22-0.45c-3.54,0-6.23,1.11-8.07,3.33c-1.85,2.22-2.77,5.35-2.77,9.38c0,3.89,0.87,6.97,2.62,9.23
					c1.74,2.27,4.68,3.4,8.82,3.4c1.54,0,3.06-0.15,4.56-0.45c1.5-0.3,2.79-0.67,3.89-1.12l1.27,7.47c-1,0.5-2.5,0.95-4.52,1.35
					c-2.02,0.4-4.1,0.6-6.24,0.6c-3.34,0-6.24-0.51-8.71-1.53s-4.51-2.44-6.13-4.26s-2.83-3.99-3.63-6.5
					C1442.37,456.92,1441.97,454.19,1441.97,451.25z"/>
			</g>
		</g>
	</g>
</g>
</svg>
